<?xml version="1.0" encoding="UTF-8"?>
<svg version="1.1" viewBox="0 0 2048 948" xmlns="http://www.w3.org/2000/svg">
<path transform="translate(423,12)" d="m0 0h29l29 2 25 3 41 9 29 9 22 8 33 15 20 11 24 15 14 10 18 14 15 13 10 9 25 25 9 11 7 8 15 20 12 17 11 18 7 12 11 23 7 15 10 27 9 29 6 27 5 27 3 27 1 16v40l-3 34-4 27-7 31-8 27-10 27-9 20-8 17-13 23-13 21-13 18-11 14-11 13-9 10-6 7-5 5-16 15-12 10 2 5 8 14 16 26 14 23 9 15 13 21 10 17 12 19v2h-109l-10-17-14-23-13-21-16-26-9-15-15-24-9-15-17-28-12-19-14-23-12-19-12-20-7-10-15-4-5-1h-141l-17 4-4 4-26 44-9 15-13 22-21 35-13 22-15 25-10 17-13 22-17 29-8 13-8 14-1 1h-109l7-14 9-15 10-17 16-27 17-29 17-28 5-9v-3l-11-9-8-7v-2l-4-2-7-7-7-8-9-9-9-11-10-12-14-19-12-18-12-20-12-23-12-26-10-27-8-26-6-24-5-29-3-27-1-17v-39l2-26 4-30 6-29 5-19 11-33 11-27 8-16 10-19 15-24 12-17 12-16 13-15 22-24 8-7 8-8 11-9 16-13 15-11 17-11 17-10 23-12 19-9 26-10 25-8 33-8 23-4 29-3z" fill="currentColor"/>
<path transform="translate(419,61)" d="m0 0h35l24 2 28 4 30 7 22 7 24 9 20 9 23 12 21 13 18 13 13 10 15 13 8 8 8 7 7 7 7 8 9 10 13 17 10 14 14 22 14 26 11 25 8 21 10 36 5 24 4 31 1 13v45l-2 24-5 30-6 26-9 29-11 27-11 23-11 20-14 22-12 16-7 9-11 13-14 15-13 13-11 9-4 4h-2l-16-26-17-28-12-19-10-17-12-19-1-4 12-8 12-11 8-10 7-12 6-18 1-6v-303l-3-16-6-15-6-10-8-10-7-7-15-10-16-7-17-4-67-1-1-1-1-54-3-3h-139l-3 3-1 55-68 1-18 4-16 7-12 8-10 9-11 14-8 17-4 16-1 15v279l2 18 5 17 8 15 6 7v2h2l7 8 14 10 4 2-1 5-10 17-13 22-19 32-15 25-8 13-6-4-14-12-25-25-9-11-13-16-18-27-9-15-8-14-15-33-10-27-8-28-6-31-3-23-1-13v-52l3-29 6-33 8-29 10-28 11-25 13-25 15-24 10-14 11-14 12-14 12-13 14-14 8-7 14-12 16-12 21-14 26-15 23-11 26-10 26-8 25-6 31-5z" fill="var(--logo-hole, #FDFEFD)"/>
<path transform="translate(1530,166)" d="m0 0h46l12 73 13 81 1 5v7h2l1-10 15-73 15-74 2-6h34l7 37 14 80 7 38h1l11-75 12-80 1-3h41l1 2-9 52-12 71-13 76-9 52-5 28-1 1h-38l-3-13-10-57-12-72-4-21-2 7-16 93-11 62-1 1h-40l-3-13-11-62-9-49-14-79-13-74z" fill="currentColor"/>
<path transform="translate(357,721)" d="m0 0h157l8 4 8 9 14 24 9 15 13 22 12 20 5 9v2l-20 9-34 16-30 14-36 17-28 13-27 13-58 27h-118l2-6 8-16 6-8 35-17 23-11 30-14 29-14 28-13 27-13 48-23 38-18 13-6-196-1 2-6 13-23 9-15 4-6z" fill="currentColor"/>
<path transform="translate(991,166)" d="m0 0h81l15 3 12 5 11 7 7 7 7 11 6 14 4 18 1 10v23l-2 16-5 16-7 13-10 11-10 7 9 27 18 49 16 43v2h-48l-15-42-22-63-2-6h-21l-1 51v59l-1 1h-43l-1-5v-276z" fill="currentColor"/>
<path transform="translate(1250,517)" d="m0 0h80l14 3 12 5 11 8 7 7 7 11 5 15 3 15 1 11v25l-2 14-4 15-7 14-11 12-8 6-3 2 30 82 10 26 2 8-1 1h-45l-3-5-35-105h-18l-1 109-1 1h-38l-5-1z" fill="currentColor"/>
<path transform="translate(1216,166)" d="m0 0h55l9 46 18 95 7 37 12 63 7 38v3h-45l-11-59-51-1-1 11-8 46-1 3h-42v-7l9-48 33-183 8-43z" fill="currentColor"/>
<path transform="translate(1812,166)" d="m0 0h54l5 24 16 85 13 68 9 49 10 51v5h-44l-9-46-2-10v-4h-52l-1 11-8 46-1 3h-42l1-11 23-123 13-70 14-77z" fill="currentColor"/>
<path transform="translate(1484,513)" d="m0 0h18l16 3 12 5 10 6 8 8 7 11 5 13 3 17 1 15v20h-44l-1-1-1-25-3-14-5-10-5-4-5-2h-14l-8 4-5 7-4 14-2 26v101l1 17 3 16 5 10 9 6 5 1h8l8-3 5-4 5-11 2-11 2-28h44v23l-3 25-6 18-8 12-9 9-14 8-13 4-6 1h-22l-15-3-16-8-10-9-7-9-6-12-4-15-2-13-1-15v-120l2-21 3-15 5-13 7-11 10-10 12-7 16-5z" fill="currentColor"/>
<path transform="translate(1052,513)" d="m0 0h18l16 3 12 5 10 6 8 8 7 11 5 14 3 16 1 16v18l-1 1h-43l-2-27-4-16-6-9-9-4h-12l-7 3-5 5-4 8-3 16-1 12v117l3 21 4 10 5 6 6 3 5 1h7l9-3 5-5 5-10 3-19 1-19 1-1h43v24l-2 18-5 19-8 14-9 10-11 7-11 5-14 3h-19l-12-2-14-5-12-8-8-8-8-13-5-16-3-19-1-11v-119l3-28 5-19 7-13 11-12 11-7 14-5z" fill="currentColor"/>
<path transform="translate(1737,517)" d="m0 0h103v40h-59v74h46v40h-46v86h61l1 3v36l-2 1h-103l-1-1z" fill="currentColor"/>
<path transform="translate(1899,166)" d="m0 0h48l3 7 12 41 13 43 3 7 8-26 16-53 5-18 1-1h40v19l-16 49-14 43-17 51-1 119-1 1h-43l-1-119-14-40-17-49-22-63-3-8z" fill="currentColor"/>
<path transform="translate(1434,166)" d="m0 0h44l1 1v240h67l1 1v40h-113z" fill="currentColor"/>
<path transform="translate(1599,517)" d="m0 0h44v240h64v39l-1 1h-106l-1-1z" fill="currentColor"/>
<path transform="translate(1349,166)" d="m0 0h44v282h-44z" fill="currentColor"/>
<path transform="translate(1166,517)" d="m0 0h43l1 1v278l-1 1h-42l-1-1z" fill="currentColor"/>
<path transform="translate(455,263)" d="m0 0h113l12 3 8 6 6 10 1 4v83l-4 4-3 1h-132l-5-3-1-3v-100z" fill="var(--logo-hole, #FDFEFD)"/>
<path transform="translate(300,263)" d="m0 0h118l4 5v100l-2 4-2 1h-136l-4-3-1-3v-79l4-11 6-8 9-5z" fill="var(--logo-hole, #FDFEFD)"/>
<path transform="translate(1035,207)" d="m0 0h32l10 4 5 4 6 12 2 10v30l-3 11-6 10-7 5-6 2-7 1h-26l-1-7z" fill="var(--logo-hole, #FDFEFD)"/>
<path transform="translate(1294,557)" d="m0 0h30l10 5 7 8 4 14 1 9v22l-2 12-5 10-8 7-11 4h-26z" fill="var(--logo-hole, #FDFEFD)"/>
<path transform="translate(561,466)" d="m0 0 11 1 9 4 8 7 4 5 4 9 1 5v9l-3 10-6 9-7 6-9 4-5 1h-9l-10-3-9-6-7-9-3-8-1-5v-9l4-12 7-9 9-6 5-2z" fill="var(--logo-hole, #FDFEFD)"/>
<path transform="translate(308,466)" d="m0 0 11 1 9 4 8 7 4 5 4 10 1 5v7l-3 11-7 10-8 6-7 3-5 1h-9l-10-3-9-6-6-7-4-10-1-5v-8l4-13 9-10 7-5z" fill="var(--logo-hole, #FDFEFD)"/>
<path transform="translate(1242,237)" d="m0 0 2 3 10 58 8 48v2h-38v-8l12-70z" fill="var(--logo-hole, #FDFEFD)"/>
<path transform="translate(1837,238)" d="m0 0 2 1 14 79 4 25v5h-38l3-22 10-60z" fill="var(--logo-hole, #FDFEFD)"/>
</svg>
